<?xml version="1.0" standalone="no"?>
<!DOCTYPE svg PUBLIC "-//W3C//DTD SVG 20010904//EN"
 "http://www.w3.org/TR/2001/REC-SVG-20010904/DTD/svg10.dtd">
<svg version="1.0" xmlns="http://www.w3.org/2000/svg"
 width="1000" height="1000" viewBox="0 0 1000.000000 1000.000000"
 preserveAspectRatio="xMidYMid meet">
<metadata>
Created by potrace 1.16, written by Peter Selinger 2001-2019
</metadata>
<g transform="translate(0.000000,1000.000000) scale(0.100000,-0.100000)"
fill="#636382" stroke="none">
<path d="M3860 7796 c-179 -53 -221 -102 -460 -541 -18 -33 -68 -121 -110
-195 -42 -74 -121 -216 -175 -315 -54 -99 -112 -205 -130 -235 -18 -30 -49
-84 -67 -120 -40 -76 -124 -227 -178 -320 -53 -91 -70 -122 -178 -320 -52 -96
-98 -179 -102 -185 -4 -5 -29 -50 -55 -100 -26 -49 -76 -139 -110 -200 -34
-60 -100 -180 -145 -265 -46 -85 -86 -159 -90 -165 -5 -5 -26 -45 -49 -88 -68
-130 -122 -227 -177 -322 -28 -49 -98 -175 -154 -280 -103 -191 -119 -220
-204 -374 -25 -46 -46 -86 -46 -88 0 -3 -8 -17 -19 -31 -10 -15 -44 -76 -76
-137 -85 -161 -111 -208 -184 -330 -36 -60 -74 -130 -85 -155 -10 -25 -21 -52
-25 -60 -44 -89 -44 -286 -1 -369 4 -9 21 -43 36 -76 64 -136 246 -271 414
-306 98 -21 5318 -21 5400 0 393 99 531 467 323 861 -87 164 -304 551 -323
575 -4 6 -18 30 -32 55 -243 440 -263 471 -330 504 -47 23 -94 34 -313 76 -27
5 -104 16 -170 25 -66 9 -178 26 -250 37 -138 21 -199 30 -360 53 -55 8 -129
19 -165 24 -36 5 -101 14 -145 20 -44 6 -107 15 -140 21 -33 5 -96 14 -140 19
-44 6 -136 18 -204 27 -370 49 -481 -102 -151 -205 58 -18 116 -37 130 -42 14
-4 61 -17 105 -28 72 -18 153 -40 325 -87 242 -67 243 -67 410 -98 47 -9 103
-20 125 -25 22 -5 76 -17 120 -26 228 -48 523 -120 567 -137 31 -11 40 -24
107 -146 79 -142 306 -534 333 -574 169 -248 206 -437 96 -494 -54 -28 -2787
-48 -2815 -21 -30 31 -9 4751 21 4773 30 21 44 17 62 -18 9 -18 26 -44 38 -58
26 -29 225 -338 251 -390 10 -19 44 -79 76 -133 33 -54 59 -100 59 -102 0 -4
106 -187 178 -305 25 -41 76 -131 114 -199 158 -283 218 -321 391 -243 121 55
154 119 109 209 -27 53 -324 553 -417 703 -12 19 -39 64 -59 100 -20 36 -47
83 -61 105 -13 22 -32 54 -41 70 -9 17 -33 55 -53 85 -21 30 -54 87 -76 125
-195 355 -465 520 -725 441z m-263 -2616 c-3 -1386 -3 -1400 -41 -1400 -12 0
-26 -4 -31 -9 -11 -9 -611 -291 -621 -291 -3 0 -76 -33 -162 -74 -87 -41 -182
-85 -212 -99 -30 -13 -138 -63 -240 -109 -102 -47 -214 -98 -250 -113 -36 -15
-104 -47 -151 -71 -104 -52 -345 -154 -364 -154 -41 0 13 122 207 465 30 55
87 159 126 230 38 72 83 155 99 185 17 30 70 129 118 220 48 91 107 199 130
240 23 41 59 109 80 150 21 41 61 116 90 165 29 50 86 153 127 230 111 206
140 259 148 270 4 6 29 53 55 105 27 52 54 102 60 110 7 8 32 51 55 95 24 44
51 94 61 112 10 17 43 78 74 135 31 57 60 110 65 118 5 8 34 60 63 115 30 55
81 150 115 210 95 173 250 461 305 565 85 163 81 160 89 50 5 -52 7 -705 5
-1450z m1 -2145 c4 -445 21 -401 -156 -408 -331 -14 -1527 -13 -1527 1 0 7 23
21 50 31 28 10 88 35 135 56 47 21 121 52 165 70 111 45 213 90 400 175 88 40
174 78 190 85 17 7 111 50 210 95 99 46 209 95 245 110 36 15 103 46 150 68
145 69 135 90 138 -283z"/>
<path d="M7966 7380 c-153 -60 -179 -182 -72 -333 193 -270 370 -597 440 -811
13 -39 29 -84 36 -101 23 -55 28 -70 33 -90 3 -11 13 -45 22 -75 9 -30 20 -71
25 -90 5 -19 16 -64 25 -100 9 -36 20 -85 25 -110 4 -25 15 -83 24 -130 102
-532 44 -1184 -146 -1660 -65 -161 -46 -255 60 -309 243 -124 399 132 522 854
50 297 50 771 0 1067 -45 264 -52 299 -98 479 -122 472 -347 969 -577 1276
-104 137 -202 178 -319 133z"/>
<path d="M7189 6753 c-133 -68 -125 -182 33 -423 163 -249 257 -464 345 -790
101 -377 86 -1015 -33 -1333 -45 -121 55 -250 205 -265 172 -16 269 199 321
716 19 196 7 565 -26 737 -85 454 -202 776 -407 1123 -143 241 -280 314 -438
235z"/>
<path d="M6540 6330 c-30 -10 -140 -59 -245 -110 -104 -50 -215 -103 -245
-117 -30 -14 -137 -65 -238 -114 -101 -49 -185 -89 -187 -89 -2 0 -83 -38
-180 -85 -98 -47 -179 -85 -181 -85 -5 0 -52 -22 -259 -120 -60 -29 -137 -65
-170 -80 -33 -15 -91 -42 -130 -60 -101 -46 -264 -129 -307 -156 -159 -101
-18 -310 162 -239 19 7 71 26 115 42 44 17 141 55 215 85 74 30 180 72 235 93
55 21 156 60 225 88 69 27 148 58 177 68 29 10 67 24 85 32 18 9 110 45 203
82 94 36 184 72 200 79 17 7 46 19 65 26 31 11 56 21 125 50 11 4 52 20 90 35
39 15 95 37 125 50 30 13 113 47 185 77 213 87 260 161 199 313 -54 135 -136
177 -264 135z"/>
<path d="M6900 5263 c-37 -3 -194 -29 -270 -43 -25 -5 -85 -16 -135 -25 -49
-9 -110 -20 -135 -25 -25 -5 -85 -16 -135 -25 -49 -9 -135 -26 -190 -36 -55
-11 -129 -24 -165 -29 -36 -5 -105 -16 -155 -25 -49 -9 -115 -20 -145 -25 -30
-5 -98 -18 -150 -28 -52 -11 -129 -25 -170 -32 -75 -12 -216 -40 -340 -66 -36
-8 -88 -18 -116 -23 -132 -24 -186 -96 -110 -146 37 -25 245 -38 383 -25 63 6
207 15 321 20 774 36 1394 74 1502 91 36 5 78 12 94 14 203 33 184 445 -20
433 -16 0 -45 -3 -64 -5z"/>
</g>
</svg>
